ffmpeg started on 2025-05-13 at 11:00:29
Report written to "D:\Convert\FFMetrics\reports\ssim_report-6.txt"
Log level: 32
Command line:
ffmpeg -hide_banner -nostdin -i "G:\\\xc0\xed\xe8\xec\xe5\\\xce\xed\xe3\xee\xe8\xed\xe3\xe8\\!_35_\xcb\xe5\xf2\xee_2024\\DreamCast-1\\\xdf \xf1\xf2\xe0\xeb \xf1\xe0\xec\xfb\xec \xf1\xe8\xeb\xfc\xed\xfb\xec \xf1 \xef\xf0\xee\xe2\xe0\xeb\xfc\xed\xfb\xec \xed\xe0\xe2\xfb\xea\xee\xec \xab\xed\xe5\xed\xee\xf0\xec\xe0\xeb\xfc\xed\xee\xe5 \xf1\xee\xf1\xf2\xee\xff\xed\xe8\xe5\xbb, \xff \xf0\xe0\xe7\xf0\xf3\xf8\xf3 \xe2\xf1\xb8\\[DC] Hazurewaku - 11_Telegram_HEVC.mkv" -i "G:\\\xc0\xed\xe8\xec\xe5\\\xce\xed\xe3\xee\xe8\xed\xe3\xe8\\!_35_\xcb\xe5\xf2\xee_2024\\DreamCast-1\\\xdf \xf1\xf2\xe0\xeb \xf1\xe0\xec\xfb\xec \xf1\xe8\xeb\xfc\xed\xfb\xec \xf1 \xef\xf0\xee\xe2\xe0\xeb\xfc\xed\xfb\xec \xed\xe0\xe2\xfb\xea\xee\xec \xab\xed\xe5\xed\xee\xf0\xec\xe0\xeb\xfc\xed\xee\xe5 \xf1\xee\xf1\xf2\xee\xff\xed\xe8\xe5\xbb, \xff \xf0\xe0\xe7\xf0\xf3\xf8\xf3 \xe2\xf1\xb8\\[DC] Hazurewaku - 11_Telegram.mp4" -lavfi "[0:v]settb=AVTB,setpts=PTS-STARTPTS,format=pix_fmts=yuv420p10,fps=24000/1001,scale=1920:1080:flags=bicubic[main];[1:v]settb=AVTB,setpts=PTS-STARTPTS,format=pix_fmts=yuv420p,fps=24000/1001,scale=1920:1080:flags=bicubic[ref];[main][ref]ssim=eof_action=endall:stats_file='D\\:/Convert/FFMetrics/logs/ssim_logfile-6.txt'" -f null -
Input #0, matroska,webm, from 'G:\Аниме\Онгоинги\!_35_Лето_2024\DreamCast-1\Я стал самым сильным с провальным навыком «ненормальное состояние», я разрушу всё\[DC] Hazurewaku - 11_Telegram_HEVC.mkv':
  Metadata:
    COMPATIBLE_BRANDS: isomiso2avc1mp41
    MAJOR_BRAND     : isom
    MINOR_VERSION   : 512
    ENCODER         : Lavf61.7.100
  Duration: 00:24:17.67, start: -0.021000, bitrate: 1670 kb/s
  Stream #0:0: Video: hevc (Main 10), yuv420p10le(tv, bt709, progressive), 1920x1080 [SAR 1:1 DAR 16:9], 23.98 fps, 23.98 tbr, 1k tbn (default)
      Metadata:
        HANDLER_NAME    : VideoHandler
        VENDOR_ID       : [0][0][0][0]
        ENCODER         : Lavc61.19.100 libx265
        BPS             : 1473477
        DURATION        : 00:24:16.454708333
        NUMBER_OF_FRAMES: 34920
        NUMBER_OF_BYTES : 268256478
        _STATISTICS_WRITING_APP: mkvpropedit v66.0.0 ('Josie') 64-bit
        _STATISTICS_WRITING_DATE_UTC: 2025-05-11 16:30:31
        _STATISTICS_TAGS: BPS DURATION NUMBER_OF_FRAMES NUMBER_OF_BYTES
  Stream #0:1: Audio: aac (LC), 48000 Hz, stereo, fltp (default)
      Metadata:
        HANDLER_NAME    : SoundHandler
        VENDOR_ID       : [0][0][0][0]
        ENCODER         : Lavc61.19.100 aac
        BPS             : 193881
        DURATION        : 00:24:17.664000000
        NUMBER_OF_FRAMES: 68329
        NUMBER_OF_BYTES : 35326702
        _STATISTICS_WRITING_APP: mkvpropedit v66.0.0 ('Josie') 64-bit
        _STATISTICS_WRITING_DATE_UTC: 2025-05-11 16:30:31
        _STATISTICS_TAGS: BPS DURATION NUMBER_OF_FRAMES NUMBER_OF_BYTES
Input #1, mov,mp4,m4a,3gp,3g2,mj2, from 'G:\Аниме\Онгоинги\!_35_Лето_2024\DreamCast-1\Я стал самым сильным с провальным навыком «ненормальное состояние», я разрушу всё\[DC] Hazurewaku - 11_Telegram.mp4':
  Metadata:
    major_brand     : isom
    minor_version   : 512
    compatible_brands: isomiso2avc1mp41
    encoder         : Lavf61.1.100
  Duration: 00:24:17.63, start: 0.000000, bitrate: 3638 kb/s
  Stream #1:0[0x1](und): Video: h264 (High) (avc1 / 0x31637661), yuv420p(tv, bt709, progressive), 1920x1080 [SAR 1:1 DAR 16:9], 3493 kb/s, 23.98 fps, 23.98 tbr, 24k tbn (default)
      Metadata:
        handler_name    : VideoHandler
        vendor_id       : [0][0][0][0]
        encoder         : Lavc61.3.100 h264_qsv
  Stream #1:1[0x2](und): Audio: aac (HE-AACv2) (mp4a / 0x6134706D), 48000 Hz, stereo, fltp, 144 kb/s (default)
      Metadata:
        handler_name    : SoundHandler
        vendor_id       : [0][0][0][0]
Stream mapping:
  Stream #0:0 (hevc) -> settb:default
  Stream #1:0 (h264) -> settb:default
  ssim:default -> Stream #0:0 (wrapped_avframe)
  Stream #0:1 -> #0:1 (aac (native) -> pcm_s16le (native))
Output #0, null, to 'pipe:':
  Metadata:
    COMPATIBLE_BRANDS: isomiso2avc1mp41
    MAJOR_BRAND     : isom
    MINOR_VERSION   : 512
    encoder         : Lavf61.7.100
  Stream #0:0: Video: wrapped_avframe, yuv420p10le(tv, bt709, progressive), 1920x1080 [SAR 1:1 DAR 16:9], q=2-31, 200 kb/s, 23.98 fps, 23.98 tbn
      Metadata:
        encoder         : Lavc61.19.100 wrapped_avframe
  Stream #0:1: Audio: pcm_s16le, 48000 Hz, stereo, s16, 1536 kb/s (default)
      Metadata:
        HANDLER_NAME    : SoundHandler
        VENDOR_ID       : [0][0][0][0]
        _STATISTICS_TAGS: BPS DURATION NUMBER_OF_FRAMES NUMBER_OF_BYTES
        BPS             : 193881
        DURATION        : 00:24:17.664000000
        NUMBER_OF_FRAMES: 68329
        NUMBER_OF_BYTES : 35326702
        _STATISTICS_WRITING_APP: mkvpropedit v66.0.0 ('Josie') 64-bit
        _STATISTICS_WRITING_DATE_UTC: 2025-05-11 16:30:31
        encoder         : Lavc61.19.100 pcm_s16le
frame=  167 fps=0.0 q=-0.0 size=N/A time=00:00:06.96 bitrate=N/A speed=13.3x    frame=  406 fps=388 q=-0.0 size=N/A time=00:00:16.93 bitrate=N/A speed=16.2x    frame=  622 fps=398 q=-0.0 size=N/A time=00:00:25.94 bitrate=N/A speed=16.6x    frame=  825 fps=398 q=-0.0 size=N/A time=00:00:34.40 bitrate=N/A speed=16.6x    frame= 1072 fps=413 q=-0.0 size=N/A time=00:00:44.71 bitrate=N/A speed=17.2x    frame= 1336 fps=430 q=-0.0 size=N/A time=00:00:55.72 bitrate=N/A speed=  18x    frame= 1582 fps=436 q=-0.0 size=N/A time=00:01:05.98 bitrate=N/A speed=18.2x    frame= 1824 fps=441 q=-0.0 size=N/A time=00:01:16.07 bitrate=N/A speed=18.4x    frame= 2033 fps=436 q=-0.0 size=N/A time=00:01:24.79 bitrate=N/A speed=18.2x    frame= 2274 fps=440 q=-0.0 size=N/A time=00:01:34.84 bitrate=N/A speed=18.4x    frame= 2512 fps=441 q=-0.0 size=N/A time=00:01:44.77 bitrate=N/A speed=18.4x    frame= 2752 fps=444 q=-0.0 size=N/A time=00:01:54.78 bitrate=N/A speed=18.5x    frame= 3000 fps=446 q=-0.0 size=N/A time=00:02:05.12 bitrate=N/A speed=18.6x    frame= 3255 fps=450 q=-0.0 size=N/A time=00:02:15.76 bitrate=N/A speed=18.8x    frame= 3504 fps=452 q=-0.0 size=N/A time=00:02:26.14 bitrate=N/A speed=18.9x    frame= 3763 fps=455 q=-0.0 size=N/A time=00:02:36.94 bitrate=N/A speed=  19x    frame= 3997 fps=455 q=-0.0 size=N/A time=00:02:46.70 bitrate=N/A speed=  19x    frame= 4228 fps=455 q=-0.0 size=N/A time=00:02:56.34 bitrate=N/A speed=  19x    frame= 4508 fps=459 q=-0.0 size=N/A time=00:03:08.02 bitrate=N/A speed=19.2x    frame= 4731 fps=458 q=-0.0 size=N/A time=00:03:17.32 bitrate=N/A speed=19.1x    frame= 4982 fps=459 q=-0.0 size=N/A time=00:03:27.79 bitrate=N/A speed=19.2x    frame= 5195 fps=458 q=-0.0 size=N/A time=00:03:36.67 bitrate=N/A speed=19.1x    frame= 5460 fps=460 q=-0.0 size=N/A time=00:03:47.72 bitrate=N/A speed=19.2x    frame= 5718 fps=462 q=-0.0 size=N/A time=00:03:58.48 bitrate=N/A speed=19.2x    frame= 5902 fps=458 q=-0.0 size=N/A time=00:04:06.16 bitrate=N/A speed=19.1x    frame= 6094 fps=454 q=-0.0 size=N/A time=00:04:14.17 bitrate=N/A speed=18.9x    frame= 6305 fps=452 q=-0.0 size=N/A time=00:04:22.97 bitrate=N/A speed=18.9x    frame= 6499 fps=449 q=-0.0 size=N/A time=00:04:31.06 bitrate=N/A speed=18.7x    frame= 6702 fps=448 q=-0.0 size=N/A time=00:04:39.52 bitrate=N/A speed=18.7x    frame= 6914 fps=446 q=-0.0 size=N/A time=00:04:48.37 bitrate=N/A speed=18.6x    frame= 7139 fps=446 q=-0.0 size=N/A time=00:04:57.75 bitrate=N/A speed=18.6x    frame= 7353 fps=445 q=-0.0 size=N/A time=00:05:06.68 bitrate=N/A speed=18.6x    frame= 7594 fps=446 q=-0.0 size=N/A time=00:05:16.73 bitrate=N/A speed=18.6x    frame= 7815 fps=446 q=-0.0 size=N/A time=00:05:25.95 bitrate=N/A speed=18.6x    frame= 7999 fps=443 q=-0.0 size=N/A time=00:05:33.62 bitrate=N/A speed=18.5x    frame= 8195 fps=441 q=-0.0 size=N/A time=00:05:41.79 bitrate=N/A speed=18.4x    frame= 8430 fps=441 q=-0.0 size=N/A time=00:05:51.60 bitrate=N/A speed=18.4x    frame= 8699 fps=444 q=-0.0 size=N/A time=00:06:02.82 bitrate=N/A speed=18.5x    frame= 8937 fps=444 q=-0.0 size=N/A time=00:06:12.74 bitrate=N/A speed=18.5x    frame= 9176 fps=444 q=-0.0 size=N/A time=00:06:22.71 bitrate=N/A speed=18.5x    frame= 9446 fps=446 q=-0.0 size=N/A time=00:06:33.97 bitrate=N/A speed=18.6x    frame= 9660 fps=445 q=-0.0 size=N/A time=00:06:42.90 bitrate=N/A speed=18.6x    frame= 9883 fps=445 q=-0.0 size=N/A time=00:06:52.20 bitrate=N/A speed=18.6x    frame=10135 fps=446 q=-0.0 size=N/A time=00:07:02.71 bitrate=N/A speed=18.6x    frame=10376 fps=447 q=-0.0 size=N/A time=00:07:12.76 bitrate=N/A speed=18.6x    frame=10613 fps=447 q=-0.0 size=N/A time=00:07:22.65 bitrate=N/A speed=18.6x    frame=10813 fps=446 q=-0.0 size=N/A time=00:07:30.99 bitrate=N/A speed=18.6x    frame=10989 fps=443 q=-0.0 size=N/A time=00:07:38.33 bitrate=N/A speed=18.5x    frame=11241 fps=444 q=-0.0 size=N/A time=00:07:48.84 bitrate=N/A speed=18.5x    frame=11478 fps=445 q=-0.0 size=N/A time=00:07:58.72 bitrate=N/A speed=18.5x    frame=11721 fps=445 q=-0.0 size=N/A time=00:08:08.86 bitrate=N/A speed=18.6x    frame=11978 fps=446 q=-0.0 size=N/A time=00:08:19.58 bitrate=N/A speed=18.6x    frame=12231 fps=447 q=-0.0 size=N/A time=00:08:30.13 bitrate=N/A speed=18.6x    frame=12487 fps=448 q=-0.0 size=N/A time=00:08:40.81 bitrate=N/A speed=18.7x    frame=12728 fps=448 q=-0.0 size=N/A time=00:08:50.86 bitrate=N/A speed=18.7x    frame=12988 fps=449 q=-0.0 size=N/A time=00:09:01.70 bitrate=N/A speed=18.7x    frame=13235 fps=450 q=-0.0 size=N/A time=00:09:12.00 bitrate=N/A speed=18.8x    frame=13511 fps=451 q=-0.0 size=N/A time=00:09:23.52 bitrate=N/A speed=18.8x    frame=13766 fps=452 q=-0.0 size=N/A time=00:09:34.15 bitrate=N/A speed=18.9x    frame=14048 fps=454 q=-0.0 size=N/A time=00:09:45.91 bitrate=N/A speed=18.9x    frame=14289 fps=454 q=-0.0 size=N/A time=00:09:55.97 bitrate=N/A speed=18.9x    frame=14529 fps=454 q=-0.0 size=N/A time=00:10:05.98 bitrate=N/A speed=18.9x    frame=14777 fps=455 q=-0.0 size=N/A time=00:10:16.32 bitrate=N/A speed=  19x    frame=15038 fps=455 q=-0.0 size=N/A time=00:10:27.20 bitrate=N/A speed=  19x    frame=15294 fps=456 q=-0.0 size=N/A time=00:10:37.88 bitrate=N/A speed=  19x    frame=15573 fps=457 q=-0.0 size=N/A time=00:10:49.52 bitrate=N/A speed=19.1x    frame=15849 fps=458 q=-0.0 size=N/A time=00:11:01.03 bitrate=N/A speed=19.1x    frame=16071 fps=458 q=-0.0 size=N/A time=00:11:10.29 bitrate=N/A speed=19.1x    frame=16293 fps=458 q=-0.0 size=N/A time=00:11:19.55 bitrate=N/A speed=19.1x    frame=16512 fps=457 q=-0.0 size=N/A time=00:11:28.68 bitrate=N/A speed=19.1x    frame=16738 fps=457 q=-0.0 size=N/A time=00:11:38.11 bitrate=N/A speed=19.1x    frame=16995 fps=457 q=-0.0 size=N/A time=00:11:48.83 bitrate=N/A speed=19.1x    frame=17147 fps=455 q=-0.0 size=N/A time=00:11:55.17 bitrate=N/A speed=  19x    frame=17268 fps=452 q=-0.0 size=N/A time=00:12:00.21 bitrate=N/A speed=18.9x    frame=17442 fps=451 q=-0.0 size=N/A time=00:12:07.47 bitrate=N/A speed=18.8x    frame=17679 fps=451 q=-0.0 size=N/A time=00:12:17.36 bitrate=N/A speed=18.8x    frame=17937 fps=451 q=-0.0 size=N/A time=00:12:28.12 bitrate=N/A speed=18.8x    frame=18210 fps=452 q=-0.0 size=N/A time=00:12:39.50 bitrate=N/A speed=18.9x    frame=18440 fps=452 q=-0.0 size=N/A time=00:12:49.10 bitrate=N/A speed=18.9x    frame=18699 fps=453 q=-0.0 size=N/A time=00:12:59.90 bitrate=N/A speed=18.9x    frame=18951 fps=453 q=-0.0 size=N/A time=00:13:10.41 bitrate=N/A speed=18.9x    frame=19219 fps=454 q=-0.0 size=N/A time=00:13:21.59 bitrate=N/A speed=18.9x    frame=19503 fps=455 q=-0.0 size=N/A time=00:13:33.43 bitrate=N/A speed=  19x    frame=19786 fps=456 q=-0.0 size=N/A time=00:13:45.24 bitrate=N/A speed=  19x    frame=20053 fps=457 q=-0.0 size=N/A time=00:13:56.37 bitrate=N/A speed=19.1x    frame=20329 fps=458 q=-0.0 size=N/A time=00:14:07.88 bitrate=N/A speed=19.1x    frame=20598 fps=459 q=-0.0 size=N/A time=00:14:19.10 bitrate=N/A speed=19.1x    frame=20876 fps=460 q=-0.0 size=N/A time=00:14:30.70 bitrate=N/A speed=19.2x    frame=21149 fps=461 q=-0.0 size=N/A time=00:14:42.08 bitrate=N/A speed=19.2x    frame=21418 fps=461 q=-0.0 size=N/A time=00:14:53.30 bitrate=N/A speed=19.2x    frame=21680 fps=462 q=-0.0 size=N/A time=00:15:04.23 bitrate=N/A speed=19.3x    frame=21933 fps=462 q=-0.0 size=N/A time=00:15:14.78 bitrate=N/A speed=19.3x    frame=22206 fps=463 q=-0.0 size=N/A time=00:15:26.17 bitrate=N/A speed=19.3x    frame=22413 fps=462 q=-0.0 size=N/A time=00:15:34.80 bitrate=N/A speed=19.3x    frame=22607 fps=461 q=-0.0 size=N/A time=00:15:42.90 bitrate=N/A speed=19.2x    frame=22780 fps=460 q=-0.0 size=N/A time=00:15:50.11 bitrate=N/A speed=19.2x    frame=22919 fps=458 q=-0.0 size=N/A time=00:15:55.91 bitrate=N/A speed=19.1x    frame=23100 fps=457 q=-0.0 size=N/A time=00:16:03.46 bitrate=N/A speed=19.1x    frame=23286 fps=456 q=-0.0 size=N/A time=00:16:11.22 bitrate=N/A speed=  19x    frame=23475 fps=455 q=-0.0 size=N/A time=00:16:19.10 bitrate=N/A speed=  19x    frame=23679 fps=454 q=-0.0 size=N/A time=00:16:27.61 bitrate=N/A speed=  19x    frame=23888 fps=454 q=-0.0 size=N/A time=00:16:36.32 bitrate=N/A speed=18.9x    frame=24072 fps=453 q=-0.0 size=N/A time=00:16:44.00 bitrate=N/A speed=18.9x    frame=24307 fps=453 q=-0.0 size=N/A time=00:16:53.80 bitrate=N/A speed=18.9x    frame=24538 fps=453 q=-0.0 size=N/A time=00:17:03.43 bitrate=N/A speed=18.9x    frame=24755 fps=453 q=-0.0 size=N/A time=00:17:12.48 bitrate=N/A speed=18.9x    frame=24989 fps=453 q=-0.0 size=N/A time=00:17:22.24 bitrate=N/A speed=18.9x    frame=25233 fps=453 q=-0.0 size=N/A time=00:17:32.42 bitrate=N/A speed=18.9x    frame=25450 fps=453 q=-0.0 size=N/A time=00:17:41.47 bitrate=N/A speed=18.9x    frame=25655 fps=452 q=-0.0 size=N/A time=00:17:50.02 bitrate=N/A speed=18.9x    frame=25844 fps=451 q=-0.0 size=N/A time=00:17:57.91 bitrate=N/A speed=18.8x    frame=26001 fps=450 q=-0.0 size=N/A time=00:18:04.45 bitrate=N/A speed=18.8x    frame=26176 fps=449 q=-0.0 size=N/A time=00:18:11.75 bitrate=N/A speed=18.7x    frame=26356 fps=448 q=-0.0 size=N/A time=00:18:19.26 bitrate=N/A speed=18.7x    frame=26550 fps=447 q=-0.0 size=N/A time=00:18:27.35 bitrate=N/A speed=18.7x    frame=26761 fps=447 q=-0.0 size=N/A time=00:18:36.15 bitrate=N/A speed=18.7x    frame=26962 fps=447 q=-0.0 size=N/A time=00:18:44.54 bitrate=N/A speed=18.6x    frame=27159 fps=446 q=-0.0 size=N/A time=00:18:52.75 bitrate=N/A speed=18.6x    frame=27348 fps=445 q=-0.0 size=N/A time=00:19:00.63 bitrate=N/A speed=18.6x    frame=27556 fps=445 q=-0.0 size=N/A time=00:19:09.31 bitrate=N/A speed=18.6x    frame=27761 fps=445 q=-0.0 size=N/A time=00:19:17.86 bitrate=N/A speed=18.5x    frame=27963 fps=444 q=-0.0 size=N/A time=00:19:26.29 bitrate=N/A speed=18.5x    frame=28122 fps=443 q=-0.0 size=N/A time=00:19:32.92 bitrate=N/A speed=18.5x    frame=28296 fps=442 q=-0.0 size=N/A time=00:19:40.17 bitrate=N/A speed=18.5x    frame=28497 fps=442 q=-0.0 size=N/A time=00:19:48.56 bitrate=N/A speed=18.4x    frame=28686 fps=441 q=-0.0 size=N/A time=00:19:56.44 bitrate=N/A speed=18.4x    frame=28913 fps=441 q=-0.0 size=N/A time=00:20:05.91 bitrate=N/A speed=18.4x    frame=29134 fps=441 q=-0.0 size=N/A time=00:20:15.13 bitrate=N/A speed=18.4x    frame=29351 fps=441 q=-0.0 size=N/A time=00:20:24.18 bitrate=N/A speed=18.4x    frame=29497 fps=440 q=-0.0 size=N/A time=00:20:30.27 bitrate=N/A speed=18.3x    frame=29682 fps=439 q=-0.0 size=N/A time=00:20:37.98 bitrate=N/A speed=18.3x    frame=29875 fps=439 q=-0.0 size=N/A time=00:20:46.03 bitrate=N/A speed=18.3x    frame=30044 fps=438 q=-0.0 size=N/A time=00:20:53.08 bitrate=N/A speed=18.3x    frame=30201 fps=437 q=-0.0 size=N/A time=00:20:59.63 bitrate=N/A speed=18.2x    frame=30417 fps=437 q=-0.0 size=N/A time=00:21:08.64 bitrate=N/A speed=18.2x    frame=30649 fps=437 q=-0.0 size=N/A time=00:21:18.31 bitrate=N/A speed=18.2x    frame=30889 fps=437 q=-0.0 size=N/A time=00:21:28.32 bitrate=N/A speed=18.2x    frame=31128 fps=437 q=-0.0 size=N/A time=00:21:38.29 bitrate=N/A speed=18.2x    frame=31356 fps=437 q=-0.0 size=N/A time=00:21:47.80 bitrate=N/A speed=18.2x    frame=31576 fps=437 q=-0.0 size=N/A time=00:21:56.98 bitrate=N/A speed=18.2x    frame=31776 fps=437 q=-0.0 size=N/A time=00:22:05.32 bitrate=N/A speed=18.2x    frame=31983 fps=437 q=-0.0 size=N/A time=00:22:13.95 bitrate=N/A speed=18.2x    frame=32189 fps=436 q=-0.0 size=N/A time=00:22:22.54 bitrate=N/A speed=18.2x    frame=32404 fps=436 q=-0.0 size=N/A time=00:22:31.51 bitrate=N/A speed=18.2x    frame=32620 fps=436 q=-0.0 size=N/A time=00:22:40.52 bitrate=N/A speed=18.2x    frame=32832 fps=436 q=-0.0 size=N/A time=00:22:49.36 bitrate=N/A speed=18.2x    frame=33010 fps=435 q=-0.0 size=N/A time=00:22:56.79 bitrate=N/A speed=18.2x    frame=33225 fps=435 q=-0.0 size=N/A time=00:23:05.75 bitrate=N/A speed=18.2x    frame=33437 fps=435 q=-0.0 size=N/A time=00:23:14.60 bitrate=N/A speed=18.1x    frame=33623 fps=435 q=-0.0 size=N/A time=00:23:22.35 bitrate=N/A speed=18.1x    frame=33792 fps=434 q=-0.0 size=N/A time=00:23:29.40 bitrate=N/A speed=18.1x    frame=33985 fps=433 q=-0.0 size=N/A time=00:23:37.45 bitrate=N/A speed=18.1x    frame=34176 fps=433 q=-0.0 size=N/A time=00:23:45.42 bitrate=N/A speed=18.1x    frame=34357 fps=432 q=-0.0 size=N/A time=00:23:52.97 bitrate=N/A speed=  18x    frame=34532 fps=432 q=-0.0 size=N/A time=00:24:00.27 bitrate=N/A speed=  18x    frame=34729 fps=431 q=-0.0 size=N/A time=00:24:08.48 bitrate=N/A speed=  18x    [Parsed_ssim_10 @ 000001bcfb6eb540] SSIM Y:0.993730 (22.027271) U:0.994915 (22.937441) V:0.995508 (23.475227) All:0.994224 (22.383567)
[out#0/null @ 000001bcfb6a6140] video:15005KiB audio:273316KiB subtitle:0KiB other streams:0KiB global headers:0KiB muxing overhead: unknown
frame=34920 fps=432 q=-0.0 Lsize=N/A time=00:24:16.45 bitrate=N/A speed=  18x    
